<svg width="81" height="80" viewBox="0 0 81 80" fill="none" xmlns="http://www.w3.org/2000/svg">
<path d="M13.5 33.3333L12.7973 34.0448L12.0769 33.3333L12.7973 32.6219L13.5 33.3333ZM68.5 60C68.5 60.5523 68.0523 61 67.5 61C66.9477 61 66.5 60.5523 66.5 60L68.5 60ZM29.6723 50.7115L12.7973 34.0448L14.2027 32.6219L31.0777 49.2885L29.6723 50.7115ZM12.7973 32.6219L29.6723 15.9552L31.0777 17.3782L14.2027 34.0448L12.7973 32.6219ZM13.5 32.3333L61.5 32.3333L61.5 34.3333L13.5 34.3333L13.5 32.3333ZM68.5 39.3333L68.5 60L66.5 60L66.5 39.3333L68.5 39.3333ZM61.5 32.3333C65.366 32.3333 68.5 35.4673 68.5 39.3333L66.5 39.3333C66.5 36.5719 64.2614 34.3333 61.5 34.3333L61.5 32.3333Z" fill="#FEFEFE"/>
</svg>
