<svg width="32" height="32" viewBox="0 0 32 32" fill="none" xmlns="http://www.w3.org/2000/svg">
<path d="M12.9293 20L12.9293 16" stroke="#33363F" stroke-width="2" stroke-linecap="round"/>
<path d="M18.101 20L18.101 16" stroke="#33363F" stroke-width="2" stroke-linecap="round"/>
<path d="M3.87879 9.33334H27.1515V9.33334C25.3835 9.33334 24.4995 9.33334 23.9274 9.85343C23.8804 9.89613 23.8355 9.94104 23.7928 9.98802C23.2727 10.5601 23.2727 11.4441 23.2727 13.2121V22.6667C23.2727 24.5523 23.2727 25.4951 22.6869 26.0809C22.1012 26.6667 21.1583 26.6667 19.2727 26.6667H11.7576C9.87196 26.6667 8.92915 26.6667 8.34336 26.0809C7.75758 25.4951 7.75758 24.5523 7.75758 22.6667V13.2121C7.75758 11.4441 7.75758 10.5601 7.23748 9.98802C7.19478 9.94104 7.14987 9.89613 7.1029 9.85343C6.53077 9.33334 5.64678 9.33334 3.87879 9.33334V9.33334Z" stroke="#33363F" stroke-width="2" stroke-linecap="round"/>
<path d="M13.0174 4.49412C13.1647 4.35237 13.4894 4.2271 13.941 4.13776C14.3926 4.04843 14.9459 4 15.5151 4C16.0844 4 16.6377 4.04842 17.0893 4.13776C17.5409 4.2271 17.8656 4.35236 18.0129 4.49412" stroke="#33363F" stroke-width="2" stroke-linecap="round"/>
</svg>
